<?xml version="1.0" encoding="UTF-8" standalone="no"?> <svg id="Furniture_and_household" data-name="Furniture and household" xmlns="http://www.w3.org/2000/svg" viewBox="0 0 64 64"><rect x="3" y="31" width="58" height="10" style="fill:#7e543b"/><polygon points="61 31 3 31 12 21 52 21 61 31" style="fill:#cc8355"/><polygon points="7 61 3 61 3 41 9 41 7 61" style="fill:#603913"/><polygon points="15 57 12 57 12 41 17 41 15 57" style="fill:#603913"/><polygon points="57 61 61 61 61 41 55 41 57 61" style="fill:#603913"/><polygon points="49 57 52 57 52 41 47 41 49 57" style="fill:#603913"/><path d="M61.74,30.33l-9-10A1,1,0,0,0,52,20H12a1,1,0,0,0-.74.33l-9,10A.971.971,0,0,0,2,31V61a1,1,0,0,0,1,1H7a1.015,1.015,0,0,0,1-.9L9.91,42H11V57a1,1,0,0,0,1,1h3a1,1,0,0,0,.99-.88L17.88,42H46.12l1.89,15.12A1,1,0,0,0,49,58h3a1,1,0,0,0,1-1V42h1.09L56,61.1a1.015,1.015,0,0,0,1,.9h4a1,1,0,0,0,1-1V31A.971.971,0,0,0,61.74,30.33ZM12.45,22h39.1l7.2,8H5.25ZM6.1,60H4V42H7.9Zm8.02-4H13V42h2.87ZM51,56H49.88L48.13,42H51Zm9,4H57.9L56.1,42H60Zm0-20H4V32H60Z"/></svg>